<svg xmlns="http://www.w3.org/2000/svg" xmlns:xlink="http://www.w3.org/1999/xlink" width="2000" zoomAndPan="magnify" viewBox="0 0 1500 1499.999933" height="2000" preserveAspectRatio="xMidYMid meet" version="1.0"><defs><g/><linearGradient x1="1000" gradientTransform="matrix(0.75, 0, 0, 0.75, 0.00003335, -0.00002)" y1="0.0000266667" x2="1000" gradientUnits="userSpaceOnUse" y2="1999.999917" id="f551f27b2f"><stop stop-opacity="1" stop-color="rgb(100%, 0%, 36.079407%)" offset="0"/><stop stop-opacity="1" stop-color="rgb(100%, 0.140381%, 36.29303%)" offset="0.00390625"/><stop stop-opacity="1" stop-color="rgb(100%, 0.280762%, 36.508179%)" offset="0.0078125"/><stop stop-opacity="1" stop-color="rgb(100%, 0.421143%, 36.721802%)" offset="0.0117188"/><stop stop-opacity="1" stop-color="rgb(100%, 0.563049%, 36.936951%)" offset="0.015625"/><stop stop-opacity="1" stop-color="rgb(100%, 0.70343%, 37.150574%)" offset="0.0195313"/><stop stop-opacity="1" stop-color="rgb(100%, 0.845337%, 37.365723%)" offset="0.0234375"/><stop stop-opacity="1" stop-color="rgb(100%, 0.985718%, 37.579346%)" offset="0.0273438"/><stop stop-opacity="1" stop-color="rgb(100%, 1.126099%, 37.794495%)" offset="0.03125"/><stop stop-opacity="1" stop-color="rgb(100%, 1.266479%, 38.008118%)" offset="0.0351563"/><stop stop-opacity="1" stop-color="rgb(100%, 1.408386%, 38.223267%)" offset="0.0390625"/><stop stop-opacity="1" stop-color="rgb(100%, 1.548767%, 38.43689%)" offset="0.0429688"/><stop stop-opacity="1" stop-color="rgb(100%, 1.690674%, 38.652039%)" offset="0.046875"/><stop stop-opacity="1" stop-color="rgb(100%, 1.831055%, 38.867188%)" offset="0.0507813"/><stop stop-opacity="1" stop-color="rgb(100%, 1.972961%, 39.082336%)" offset="0.0546875"/><stop stop-opacity="1" stop-color="rgb(100%, 2.113342%, 39.295959%)" offset="0.0585938"/><stop stop-opacity="1" stop-color="rgb(100%, 2.253723%, 39.511108%)" offset="0.0625"/><stop stop-opacity="1" stop-color="rgb(100%, 2.394104%, 39.724731%)" offset="0.0664063"/><stop stop-opacity="1" stop-color="rgb(100%, 2.536011%, 39.93988%)" offset="0.0703125"/><stop stop-opacity="1" stop-color="rgb(100%, 2.676392%, 40.153503%)" offset="0.0742188"/><stop stop-opacity="1" stop-color="rgb(100%, 2.818298%, 40.368652%)" offset="0.078125"/><stop stop-opacity="1" stop-color="rgb(100%, 2.958679%, 40.582275%)" offset="0.0820313"/><stop stop-opacity="1" stop-color="rgb(100%, 3.100586%, 40.797424%)" offset="0.0859375"/><stop stop-opacity="1" stop-color="rgb(100%, 3.240967%, 41.011047%)" offset="0.0898438"/><stop stop-opacity="1" stop-color="rgb(100%, 3.381348%, 41.226196%)" offset="0.09375"/><stop stop-opacity="1" stop-color="rgb(100%, 3.521729%, 41.439819%)" offset="0.0976563"/><stop stop-opacity="1" stop-color="rgb(100%, 3.663635%, 41.654968%)" offset="0.101563"/><stop stop-opacity="1" stop-color="rgb(100%, 3.804016%, 41.868591%)" offset="0.105469"/><stop stop-opacity="1" stop-color="rgb(100%, 3.945923%, 42.08374%)" offset="0.109375"/><stop stop-opacity="1" stop-color="rgb(100%, 4.086304%, 42.297363%)" offset="0.113281"/><stop stop-opacity="1" stop-color="rgb(100%, 4.226685%, 42.512512%)" offset="0.117188"/><stop stop-opacity="1" stop-color="rgb(100%, 4.367065%, 42.726135%)" offset="0.121094"/><stop stop-opacity="1" stop-color="rgb(100%, 4.508972%, 42.941284%)" offset="0.125"/><stop stop-opacity="1" stop-color="rgb(100%, 4.649353%, 43.154907%)" offset="0.128906"/><stop stop-opacity="1" stop-color="rgb(100%, 4.79126%, 43.370056%)" offset="0.132813"/><stop stop-opacity="1" stop-color="rgb(100%, 4.931641%, 43.583679%)" offset="0.136719"/><stop stop-opacity="1" stop-color="rgb(100%, 5.073547%, 43.798828%)" offset="0.140625"/><stop stop-opacity="1" stop-color="rgb(100%, 5.213928%, 44.013977%)" offset="0.144531"/><stop stop-opacity="1" stop-color="rgb(100%, 5.354309%, 44.229126%)" offset="0.148438"/><stop stop-opacity="1" stop-color="rgb(100%, 5.49469%, 44.442749%)" offset="0.152344"/><stop stop-opacity="1" stop-color="rgb(100%, 5.636597%, 44.657898%)" offset="0.15625"/><stop stop-opacity="1" stop-color="rgb(100%, 5.776978%, 44.871521%)" offset="0.160156"/><stop stop-opacity="1" stop-color="rgb(100%, 5.918884%, 45.08667%)" offset="0.164063"/><stop stop-opacity="1" stop-color="rgb(100%, 6.059265%, 45.300293%)" offset="0.167969"/><stop stop-opacity="1" stop-color="rgb(100%, 6.201172%, 45.515442%)" offset="0.171875"/><stop stop-opacity="1" stop-color="rgb(100%, 6.341553%, 45.729065%)" offset="0.175781"/><stop stop-opacity="1" stop-color="rgb(100%, 6.481934%, 45.944214%)" offset="0.179688"/><stop stop-opacity="1" stop-color="rgb(100%, 6.622314%, 46.157837%)" offset="0.183594"/><stop stop-opacity="1" stop-color="rgb(100%, 6.764221%, 46.372986%)" offset="0.1875"/><stop stop-opacity="1" stop-color="rgb(100%, 6.904602%, 46.586609%)" offset="0.191406"/><stop stop-opacity="1" stop-color="rgb(100%, 7.046509%, 46.801758%)" offset="0.195313"/><stop stop-opacity="1" stop-color="rgb(100%, 7.18689%, 47.015381%)" offset="0.199219"/><stop stop-opacity="1" stop-color="rgb(100%, 7.327271%, 47.23053%)" offset="0.203125"/><stop stop-opacity="1" stop-color="rgb(100%, 7.467651%, 47.444153%)" offset="0.207031"/><stop stop-opacity="1" stop-color="rgb(100%, 7.609558%, 47.659302%)" offset="0.210938"/><stop stop-opacity="1" stop-color="rgb(100%, 7.749939%, 47.872925%)" offset="0.214844"/><stop stop-opacity="1" stop-color="rgb(100%, 7.891846%, 48.088074%)" offset="0.21875"/><stop stop-opacity="1" stop-color="rgb(100%, 8.032227%, 48.301697%)" offset="0.222656"/><stop stop-opacity="1" stop-color="rgb(100%, 8.174133%, 48.516846%)" offset="0.226563"/><stop stop-opacity="1" stop-color="rgb(100%, 8.314514%, 48.731995%)" offset="0.230469"/><stop stop-opacity="1" stop-color="rgb(100%, 8.454895%, 48.947144%)" offset="0.234375"/><stop stop-opacity="1" stop-color="rgb(100%, 8.595276%, 49.160767%)" offset="0.238281"/><stop stop-opacity="1" stop-color="rgb(100%, 8.737183%, 49.375916%)" offset="0.242188"/><stop stop-opacity="1" stop-color="rgb(100%, 8.877563%, 49.589539%)" offset="0.246094"/><stop stop-opacity="1" stop-color="rgb(100%, 9.01947%, 49.804688%)" offset="0.25"/><stop stop-opacity="1" stop-color="rgb(100%, 9.159851%, 50.018311%)" offset="0.253906"/><stop stop-opacity="1" stop-color="rgb(100%, 9.301758%, 50.233459%)" offset="0.257812"/><stop stop-opacity="1" stop-color="rgb(100%, 9.442139%, 50.447083%)" offset="0.261719"/><stop stop-opacity="1" stop-color="rgb(100%, 9.58252%, 50.662231%)" offset="0.265625"/><stop stop-opacity="1" stop-color="rgb(100%, 9.7229%, 50.875854%)" offset="0.269531"/><stop stop-opacity="1" stop-color="rgb(100%, 9.864807%, 51.091003%)" offset="0.273438"/><stop stop-opacity="1" stop-color="rgb(100%, 10.005188%, 51.304626%)" offset="0.277344"/><stop stop-opacity="1" stop-color="rgb(100%, 10.147095%, 51.519775%)" offset="0.28125"/><stop stop-opacity="1" stop-color="rgb(100%, 10.287476%, 51.733398%)" offset="0.285156"/><stop stop-opacity="1" stop-color="rgb(100%, 10.427856%, 51.948547%)" offset="0.289062"/><stop stop-opacity="1" stop-color="rgb(100%, 10.568237%, 52.16217%)" offset="0.292969"/><stop stop-opacity="1" stop-color="rgb(100%, 10.710144%, 52.377319%)" offset="0.296875"/><stop stop-opacity="1" stop-color="rgb(100%, 10.850525%, 52.590942%)" offset="0.300781"/><stop stop-opacity="1" stop-color="rgb(100%, 10.992432%, 52.806091%)" offset="0.304687"/><stop stop-opacity="1" stop-color="rgb(100%, 11.132812%, 53.019714%)" offset="0.308594"/><stop stop-opacity="1" stop-color="rgb(100%, 11.274719%, 53.234863%)" offset="0.3125"/><stop stop-opacity="1" stop-color="rgb(100%, 11.4151%, 53.448486%)" offset="0.316406"/><stop stop-opacity="1" stop-color="rgb(100%, 11.555481%, 53.663635%)" offset="0.320313"/><stop stop-opacity="1" stop-color="rgb(100%, 11.695862%, 53.878784%)" offset="0.324219"/><stop stop-opacity="1" stop-color="rgb(100%, 11.837769%, 54.093933%)" offset="0.328125"/><stop stop-opacity="1" stop-color="rgb(100%, 11.978149%, 54.307556%)" offset="0.332031"/><stop stop-opacity="1" stop-color="rgb(100%, 12.120056%, 54.522705%)" offset="0.335938"/><stop stop-opacity="1" stop-color="rgb(100%, 12.260437%, 54.736328%)" offset="0.339844"/><stop stop-opacity="1" stop-color="rgb(100%, 12.402344%, 54.951477%)" offset="0.34375"/><stop stop-opacity="1" stop-color="rgb(100%, 12.542725%, 55.1651%)" offset="0.347656"/><stop stop-opacity="1" stop-color="rgb(100%, 12.683105%, 55.380249%)" offset="0.351562"/><stop stop-opacity="1" stop-color="rgb(100%, 12.823486%, 55.593872%)" offset="0.355469"/><stop stop-opacity="1" stop-color="rgb(100%, 12.965393%, 55.809021%)" offset="0.359375"/><stop stop-opacity="1" stop-color="rgb(100%, 13.105774%, 56.022644%)" offset="0.363281"/><stop stop-opacity="1" stop-color="rgb(100%, 13.247681%, 56.237793%)" offset="0.367188"/><stop stop-opacity="1" stop-color="rgb(100%, 13.388062%, 56.451416%)" offset="0.371094"/><stop stop-opacity="1" stop-color="rgb(100%, 13.529968%, 56.666565%)" offset="0.375"/><stop stop-opacity="1" stop-color="rgb(100%, 13.670349%, 56.880188%)" offset="0.378906"/><stop stop-opacity="1" stop-color="rgb(100%, 13.81073%, 57.095337%)" offset="0.382812"/><stop stop-opacity="1" stop-color="rgb(100%, 13.951111%, 57.30896%)" offset="0.386719"/><stop stop-opacity="1" stop-color="rgb(100%, 14.093018%, 57.524109%)" offset="0.390625"/><stop stop-opacity="1" stop-color="rgb(100%, 14.233398%, 57.737732%)" offset="0.394531"/><stop stop-opacity="1" stop-color="rgb(100%, 14.375305%, 57.952881%)" offset="0.398438"/><stop stop-opacity="1" stop-color="rgb(100%, 14.515686%, 58.166504%)" offset="0.402344"/><stop stop-opacity="1" stop-color="rgb(100%, 14.656067%, 58.381653%)" offset="0.40625"/><stop stop-opacity="1" stop-color="rgb(100%, 14.796448%, 58.596802%)" offset="0.410156"/><stop stop-opacity="1" stop-color="rgb(100%, 14.938354%, 58.811951%)" offset="0.414062"/><stop stop-opacity="1" stop-color="rgb(100%, 15.078735%, 59.025574%)" offset="0.417969"/><stop stop-opacity="1" stop-color="rgb(100%, 15.220642%, 59.240723%)" offset="0.421875"/><stop stop-opacity="1" stop-color="rgb(100%, 15.361023%, 59.454346%)" offset="0.425781"/><stop stop-opacity="1" stop-color="rgb(100%, 15.50293%, 59.669495%)" offset="0.429687"/><stop stop-opacity="1" stop-color="rgb(100%, 15.643311%, 59.883118%)" offset="0.433594"/><stop stop-opacity="1" stop-color="rgb(100%, 15.783691%, 60.098267%)" offset="0.4375"/><stop stop-opacity="1" stop-color="rgb(100%, 15.924072%, 60.31189%)" offset="0.441406"/><stop stop-opacity="1" stop-color="rgb(100%, 16.065979%, 60.527039%)" offset="0.445313"/><stop stop-opacity="1" stop-color="rgb(100%, 16.20636%, 60.740662%)" offset="0.449219"/><stop stop-opacity="1" stop-color="rgb(100%, 16.348267%, 60.955811%)" offset="0.453125"/><stop stop-opacity="1" stop-color="rgb(100%, 16.488647%, 61.169434%)" offset="0.457031"/><stop stop-opacity="1" stop-color="rgb(100%, 16.630554%, 61.384583%)" offset="0.460938"/><stop stop-opacity="1" stop-color="rgb(100%, 16.770935%, 61.598206%)" offset="0.464844"/><stop stop-opacity="1" stop-color="rgb(100%, 16.911316%, 61.813354%)" offset="0.46875"/><stop stop-opacity="1" stop-color="rgb(100%, 17.051697%, 62.026978%)" offset="0.472656"/><stop stop-opacity="1" stop-color="rgb(100%, 17.193604%, 62.242126%)" offset="0.476562"/><stop stop-opacity="1" stop-color="rgb(100%, 17.333984%, 62.45575%)" offset="0.480469"/><stop stop-opacity="1" stop-color="rgb(100%, 17.475891%, 62.670898%)" offset="0.484375"/><stop stop-opacity="1" stop-color="rgb(100%, 17.616272%, 62.884521%)" offset="0.488281"/><stop stop-opacity="1" stop-color="rgb(100%, 17.756653%, 63.09967%)" offset="0.492188"/><stop stop-opacity="1" stop-color="rgb(100%, 17.897034%, 63.314819%)" offset="0.496094"/><stop stop-opacity="1" stop-color="rgb(100%, 18.03894%, 63.529968%)" offset="0.5"/><stop stop-opacity="1" stop-color="rgb(100%, 18.179321%, 63.743591%)" offset="0.503906"/><stop stop-opacity="1" stop-color="rgb(100%, 18.321228%, 63.95874%)" offset="0.507812"/><stop stop-opacity="1" stop-color="rgb(100%, 18.461609%, 64.172363%)" offset="0.511719"/><stop stop-opacity="1" stop-color="rgb(100%, 18.603516%, 64.387512%)" offset="0.515625"/><stop stop-opacity="1" stop-color="rgb(100%, 18.743896%, 64.601135%)" offset="0.519531"/><stop stop-opacity="1" stop-color="rgb(100%, 18.884277%, 64.816284%)" offset="0.523438"/><stop stop-opacity="1" stop-color="rgb(100%, 19.024658%, 65.029907%)" offset="0.527344"/><stop stop-opacity="1" stop-color="rgb(100%, 19.166565%, 65.245056%)" offset="0.53125"/><stop stop-opacity="1" stop-color="rgb(100%, 19.306946%, 65.458679%)" offset="0.535156"/><stop stop-opacity="1" stop-color="rgb(100%, 19.448853%, 65.673828%)" offset="0.539062"/><stop stop-opacity="1" stop-color="rgb(100%, 19.589233%, 65.887451%)" offset="0.542969"/><stop stop-opacity="1" stop-color="rgb(100%, 19.73114%, 66.1026%)" offset="0.546875"/><stop stop-opacity="1" stop-color="rgb(100%, 19.871521%, 66.316223%)" offset="0.550781"/><stop stop-opacity="1" stop-color="rgb(100%, 20.011902%, 66.531372%)" offset="0.554688"/><stop stop-opacity="1" stop-color="rgb(100%, 20.152283%, 66.744995%)" offset="0.558594"/><stop stop-opacity="1" stop-color="rgb(100%, 20.294189%, 66.960144%)" offset="0.5625"/><stop stop-opacity="1" stop-color="rgb(100%, 20.43457%, 67.173767%)" offset="0.566406"/><stop stop-opacity="1" stop-color="rgb(100%, 20.576477%, 67.388916%)" offset="0.570312"/><stop stop-opacity="1" stop-color="rgb(100%, 20.716858%, 67.602539%)" offset="0.574219"/><stop stop-opacity="1" stop-color="rgb(100%, 20.857239%, 67.817688%)" offset="0.578125"/><stop stop-opacity="1" stop-color="rgb(100%, 20.99762%, 68.031311%)" offset="0.582031"/><stop stop-opacity="1" stop-color="rgb(100%, 21.139526%, 68.24646%)" offset="0.585937"/><stop stop-opacity="1" stop-color="rgb(100%, 21.279907%, 68.461609%)" offset="0.589844"/><stop stop-opacity="1" stop-color="rgb(100%, 21.421814%, 68.676758%)" offset="0.59375"/><stop stop-opacity="1" stop-color="rgb(100%, 21.562195%, 68.890381%)" offset="0.597656"/><stop stop-opacity="1" stop-color="rgb(100%, 21.704102%, 69.10553%)" offset="0.601562"/><stop stop-opacity="1" stop-color="rgb(100%, 21.844482%, 69.319153%)" offset="0.605469"/><stop stop-opacity="1" stop-color="rgb(100%, 21.984863%, 69.534302%)" offset="0.609375"/><stop stop-opacity="1" stop-color="rgb(100%, 22.125244%, 69.747925%)" offset="0.613281"/><stop stop-opacity="1" stop-color="rgb(100%, 22.267151%, 69.963074%)" offset="0.617188"/><stop stop-opacity="1" stop-color="rgb(100%, 22.407532%, 70.176697%)" offset="0.621094"/><stop stop-opacity="1" stop-color="rgb(100%, 22.549438%, 70.391846%)" offset="0.625"/><stop stop-opacity="1" stop-color="rgb(100%, 22.689819%, 70.605469%)" offset="0.628906"/><stop stop-opacity="1" stop-color="rgb(100%, 22.831726%, 70.820618%)" offset="0.632812"/><stop stop-opacity="1" stop-color="rgb(100%, 22.972107%, 71.034241%)" offset="0.636719"/><stop stop-opacity="1" stop-color="rgb(100%, 23.112488%, 71.24939%)" offset="0.640625"/><stop stop-opacity="1" stop-color="rgb(100%, 23.252869%, 71.463013%)" offset="0.644531"/><stop stop-opacity="1" stop-color="rgb(100%, 23.394775%, 71.678162%)" offset="0.648438"/><stop stop-opacity="1" stop-color="rgb(100%, 23.535156%, 71.891785%)" offset="0.652344"/><stop stop-opacity="1" stop-color="rgb(100%, 23.677063%, 72.106934%)" offset="0.65625"/><stop stop-opacity="1" stop-color="rgb(100%, 23.817444%, 72.320557%)" offset="0.660156"/><stop stop-opacity="1" stop-color="rgb(100%, 23.959351%, 72.535706%)" offset="0.664063"/><stop stop-opacity="1" stop-color="rgb(100%, 24.099731%, 72.749329%)" offset="0.667969"/><stop stop-opacity="1" stop-color="rgb(100%, 24.240112%, 72.964478%)" offset="0.671875"/><stop stop-opacity="1" stop-color="rgb(100%, 24.380493%, 73.179626%)" offset="0.675781"/><stop stop-opacity="1" stop-color="rgb(100%, 24.5224%, 73.394775%)" offset="0.679688"/><stop stop-opacity="1" stop-color="rgb(100%, 24.662781%, 73.608398%)" offset="0.683594"/><stop stop-opacity="1" stop-color="rgb(100%, 24.804688%, 73.823547%)" offset="0.6875"/><stop stop-opacity="1" stop-color="rgb(100%, 24.945068%, 74.03717%)" offset="0.691406"/><stop stop-opacity="1" stop-color="rgb(100%, 25.085449%, 74.252319%)" offset="0.695312"/><stop stop-opacity="1" stop-color="rgb(100%, 25.22583%, 74.465942%)" offset="0.699219"/><stop stop-opacity="1" stop-color="rgb(100%, 25.367737%, 74.681091%)" offset="0.703125"/><stop stop-opacity="1" stop-color="rgb(100%, 25.508118%, 74.894714%)" offset="0.707031"/><stop stop-opacity="1" stop-color="rgb(100%, 25.650024%, 75.109863%)" offset="0.710938"/><stop stop-opacity="1" stop-color="rgb(100%, 25.790405%, 75.323486%)" offset="0.714844"/><stop stop-opacity="1" stop-color="rgb(100%, 25.932312%, 75.538635%)" offset="0.71875"/><stop stop-opacity="1" stop-color="rgb(100%, 26.072693%, 75.752258%)" offset="0.722656"/><stop stop-opacity="1" stop-color="rgb(100%, 26.213074%, 75.967407%)" offset="0.726562"/><stop stop-opacity="1" stop-color="rgb(100%, 26.353455%, 76.18103%)" offset="0.730469"/><stop stop-opacity="1" stop-color="rgb(100%, 26.495361%, 76.396179%)" offset="0.734375"/><stop stop-opacity="1" stop-color="rgb(100%, 26.635742%, 76.609802%)" offset="0.738281"/><stop stop-opacity="1" stop-color="rgb(100%, 26.777649%, 76.824951%)" offset="0.742188"/><stop stop-opacity="1" stop-color="rgb(100%, 26.91803%, 77.038574%)" offset="0.746094"/><stop stop-opacity="1" stop-color="rgb(100%, 27.059937%, 77.253723%)" offset="0.75"/><stop stop-opacity="1" stop-color="rgb(100%, 27.200317%, 77.467346%)" offset="0.753906"/><stop stop-opacity="1" stop-color="rgb(100%, 27.340698%, 77.682495%)" offset="0.757812"/><stop stop-opacity="1" stop-color="rgb(100%, 27.481079%, 77.897644%)" offset="0.761719"/><stop stop-opacity="1" stop-color="rgb(100%, 27.622986%, 78.112793%)" offset="0.765625"/><stop stop-opacity="1" stop-color="rgb(100%, 27.763367%, 78.326416%)" offset="0.769531"/><stop stop-opacity="1" stop-color="rgb(100%, 27.905273%, 78.541565%)" offset="0.773438"/><stop stop-opacity="1" stop-color="rgb(100%, 28.045654%, 78.755188%)" offset="0.777344"/><stop stop-opacity="1" stop-color="rgb(100%, 28.186035%, 78.970337%)" offset="0.78125"/><stop stop-opacity="1" stop-color="rgb(100%, 28.326416%, 79.18396%)" offset="0.785156"/><stop stop-opacity="1" stop-color="rgb(100%, 28.468323%, 79.399109%)" offset="0.789062"/><stop stop-opacity="1" stop-color="rgb(100%, 28.608704%, 79.612732%)" offset="0.792969"/><stop stop-opacity="1" stop-color="rgb(100%, 28.75061%, 79.827881%)" offset="0.796875"/><stop stop-opacity="1" stop-color="rgb(100%, 28.890991%, 80.041504%)" offset="0.800781"/><stop stop-opacity="1" stop-color="rgb(100%, 29.032898%, 80.256653%)" offset="0.804688"/><stop stop-opacity="1" stop-color="rgb(100%, 29.173279%, 80.470276%)" offset="0.808594"/><stop stop-opacity="1" stop-color="rgb(100%, 29.31366%, 80.685425%)" offset="0.8125"/><stop stop-opacity="1" stop-color="rgb(100%, 29.454041%, 80.899048%)" offset="0.816406"/><stop stop-opacity="1" stop-color="rgb(100%, 29.595947%, 81.114197%)" offset="0.820312"/><stop stop-opacity="1" stop-color="rgb(100%, 29.736328%, 81.32782%)" offset="0.824219"/><stop stop-opacity="1" stop-color="rgb(100%, 29.878235%, 81.542969%)" offset="0.828125"/><stop stop-opacity="1" stop-color="rgb(100%, 30.018616%, 81.756592%)" offset="0.832031"/><stop stop-opacity="1" stop-color="rgb(100%, 30.160522%, 81.971741%)" offset="0.835937"/><stop stop-opacity="1" stop-color="rgb(100%, 30.300903%, 82.185364%)" offset="0.839844"/><stop stop-opacity="1" stop-color="rgb(100%, 30.441284%, 82.400513%)" offset="0.84375"/><stop stop-opacity="1" stop-color="rgb(100%, 30.581665%, 82.614136%)" offset="0.847656"/><stop stop-opacity="1" stop-color="rgb(100%, 30.723572%, 82.829285%)" offset="0.851562"/><stop stop-opacity="1" stop-color="rgb(100%, 30.863953%, 83.044434%)" offset="0.855469"/><stop stop-opacity="1" stop-color="rgb(100%, 31.005859%, 83.259583%)" offset="0.859375"/><stop stop-opacity="1" stop-color="rgb(100%, 31.14624%, 83.473206%)" offset="0.863281"/><stop stop-opacity="1" stop-color="rgb(100%, 31.286621%, 83.688354%)" offset="0.867188"/><stop stop-opacity="1" stop-color="rgb(100%, 31.427002%, 83.901978%)" offset="0.871094"/><stop stop-opacity="1" stop-color="rgb(100%, 31.568909%, 84.117126%)" offset="0.875"/><stop stop-opacity="1" stop-color="rgb(100%, 31.70929%, 84.33075%)" offset="0.878906"/><stop stop-opacity="1" stop-color="rgb(100%, 31.851196%, 84.545898%)" offset="0.882812"/><stop stop-opacity="1" stop-color="rgb(100%, 31.991577%, 84.759521%)" offset="0.886719"/><stop stop-opacity="1" stop-color="rgb(100%, 32.133484%, 84.97467%)" offset="0.890625"/><stop stop-opacity="1" stop-color="rgb(100%, 32.273865%, 85.188293%)" offset="0.894531"/><stop stop-opacity="1" stop-color="rgb(100%, 32.414246%, 85.403442%)" offset="0.898438"/><stop stop-opacity="1" stop-color="rgb(100%, 32.554626%, 85.617065%)" offset="0.902344"/><stop stop-opacity="1" stop-color="rgb(100%, 32.696533%, 85.832214%)" offset="0.90625"/><stop stop-opacity="1" stop-color="rgb(100%, 32.836914%, 86.045837%)" offset="0.910156"/><stop stop-opacity="1" stop-color="rgb(100%, 32.978821%, 86.260986%)" offset="0.914063"/><stop stop-opacity="1" stop-color="rgb(100%, 33.119202%, 86.474609%)" offset="0.917969"/><stop stop-opacity="1" stop-color="rgb(100%, 33.261108%, 86.689758%)" offset="0.921875"/><stop stop-opacity="1" stop-color="rgb(100%, 33.401489%, 86.903381%)" offset="0.925781"/><stop stop-opacity="1" stop-color="rgb(100%, 33.54187%, 87.11853%)" offset="0.929688"/><stop stop-opacity="1" stop-color="rgb(100%, 33.682251%, 87.332153%)" offset="0.933594"/><stop stop-opacity="1" stop-color="rgb(100%, 33.824158%, 87.547302%)" offset="0.9375"/><stop stop-opacity="1" stop-color="rgb(100%, 33.964539%, 87.762451%)" offset="0.941406"/><stop stop-opacity="1" stop-color="rgb(100%, 34.106445%, 87.9776%)" offset="0.945312"/><stop stop-opacity="1" stop-color="rgb(100%, 34.246826%, 88.191223%)" offset="0.949219"/><stop stop-opacity="1" stop-color="rgb(100%, 34.388733%, 88.406372%)" offset="0.953125"/><stop stop-opacity="1" stop-color="rgb(100%, 34.529114%, 88.619995%)" offset="0.957031"/><stop stop-opacity="1" stop-color="rgb(100%, 34.669495%, 88.835144%)" offset="0.960938"/><stop stop-opacity="1" stop-color="rgb(100%, 34.809875%, 89.048767%)" offset="0.964844"/><stop stop-opacity="1" stop-color="rgb(100%, 34.951782%, 89.263916%)" offset="0.96875"/><stop stop-opacity="1" stop-color="rgb(100%, 35.092163%, 89.477539%)" offset="0.972656"/><stop stop-opacity="1" stop-color="rgb(100%, 35.23407%, 89.692688%)" offset="0.976562"/><stop stop-opacity="1" stop-color="rgb(100%, 35.374451%, 89.906311%)" offset="0.980469"/><stop stop-opacity="1" stop-color="rgb(100%, 35.514832%, 90.12146%)" offset="0.984375"/><stop stop-opacity="1" stop-color="rgb(100%, 35.655212%, 90.335083%)" offset="0.988281"/><stop stop-opacity="1" stop-color="rgb(100%, 35.797119%, 90.550232%)" offset="0.992188"/><stop stop-opacity="1" stop-color="rgb(100%, 35.9375%, 90.763855%)" offset="0.996094"/><stop stop-opacity="1" stop-color="rgb(100%, 36.079407%, 90.979004%)" offset="1"/></linearGradient><clipPath id="03eb5bcc4d"><path d="M 150 0 L 1500 0 L 1500 1225.125 L 150 1225.125 Z M 150 0 " clip-rule="nonzero"/></clipPath><clipPath id="b7bdc32faf"><rect x="0" width="1192" y="0" height="389"/></clipPath></defs><rect x="-150" width="1800" fill="#ffffff" y="-149.999993" height="1799.99992" fill-opacity="1"/><rect x="-150" fill="url(#f551f27b2f)" width="1800" y="-149.999993" height="1799.99992"/><g clip-path="url(#03eb5bcc4d)"><path fill="#ffffff" d="M 151.867188 546.683594 C 153.742188 524.832031 157.175781 503.289062 160.609375 481.433594 C 164.042969 459.265625 166.855469 436.785156 168.726562 414.308594 C 170.289062 394.636719 171.851562 374.65625 176.21875 355.296875 C 185.585938 314.398438 205.570312 279.117188 234.605469 249.144531 C 248.652344 234.472656 264.265625 221.984375 281.125 210.433594 C 295.484375 200.753906 309.847656 191.386719 324.210938 182.019531 C 337.324219 173.589844 350.4375 164.847656 362.613281 154.859375 C 368.542969 149.863281 374.476562 144.867188 379.785156 139.558594 C 402.886719 117.078125 416.9375 89.917969 422.558594 58.382812 C 425.054688 44.644531 426.617188 30.910156 427.550781 16.859375 C 427.863281 11.863281 428.175781 7.179688 428.488281 2.183594 L 449.71875 2.183594 C 449.71875 4.371094 449.40625 6.867188 449.40625 9.054688 C 448.160156 28.722656 446.285156 48.082031 442.539062 67.4375 C 435.667969 100.53125 420.371094 129.257812 396.332031 153.296875 C 385.714844 164.222656 373.851562 173.589844 361.675781 182.332031 C 347 192.949219 331.703125 202.3125 316.40625 212.304688 C 301.417969 221.984375 286.742188 231.972656 272.695312 242.902344 C 247.40625 263.195312 226.488281 287.234375 212.125 316.585938 C 202.132812 336.878906 195.890625 358.421875 193.078125 381.210938 C 190.894531 399.632812 189.332031 418.367188 187.460938 437.097656 C 185.585938 456.144531 182.777344 475.5 179.65625 494.234375 C 174.660156 524.207031 170.601562 554.179688 171.539062 584.464844 C 172.472656 609.128906 176.53125 632.855469 186.523438 655.335938 C 203.695312 694.363281 233.355469 720.277344 272.695312 735.574219 C 291.738281 743.066406 311.410156 746.8125 331.703125 748.0625 C 352.308594 749.3125 373.226562 748.6875 393.832031 747.125 C 417.25 745.566406 440.664062 743.066406 464.082031 742.753906 C 482.5 742.441406 500.921875 742.753906 519.03125 745.878906 C 543.382812 749.9375 566.175781 758.054688 587.71875 768.980469 C 606.761719 778.660156 624.558594 790.523438 642.042969 803.011719 C 660.777344 816.4375 678.882812 831.113281 696.992188 845.472656 C 710.730469 856.402344 724.46875 867.015625 739.140625 876.695312 C 757.875 888.871094 777.542969 899.175781 799.085938 905.105469 C 826.5625 912.910156 854.660156 914.160156 882.757812 909.164062 C 903.675781 905.417969 923.660156 898.863281 943.328125 891.054688 C 962.375 883.5625 981.417969 875.757812 1000.464844 868.265625 C 1020.132812 860.460938 1040.113281 854.214844 1061.03125 850.15625 C 1095.375 843.601562 1129.40625 844.535156 1162.816406 856.089844 C 1183.109375 863.269531 1201.527344 874.195312 1217.765625 888.246094 C 1232.125 900.421875 1244.613281 914.160156 1256.167969 929.148438 C 1269.277344 945.695312 1280.832031 963.179688 1291.757812 981.285156 C 1304.246094 1001.890625 1316.421875 1022.5 1328.289062 1043.417969 C 1352.328125 1085.566406 1385.109375 1119.910156 1424.761719 1148.007812 C 1437.875 1157.375 1451.300781 1165.804688 1465.039062 1174.234375 C 1476.589844 1182.039062 1488.453125 1189.53125 1499.691406 1197.960938 L 1499.691406 1225.125 C 1498.757812 1224.5 1497.820312 1223.5625 1496.882812 1222.9375 C 1486.890625 1214.820312 1476.589844 1207.328125 1465.972656 1200.460938 C 1454.109375 1192.65625 1441.933594 1185.160156 1430.070312 1177.355469 C 1415.707031 1167.988281 1401.65625 1158 1388.546875 1147.070312 C 1358.882812 1122.40625 1333.59375 1093.683594 1313.925781 1060.589844 C 1302.0625 1040.917969 1290.511719 1021.25 1278.957031 1001.582031 C 1266.15625 980.039062 1252.421875 958.808594 1236.496094 939.136719 C 1226.195312 926.335938 1215.265625 914.472656 1202.777344 903.855469 C 1168.746094 875.445312 1129.71875 864.832031 1086.011719 868.578125 C 1059.472656 871.074219 1034.183594 878.566406 1009.519531 887.933594 C 988.601562 896.050781 967.679688 904.792969 946.761719 912.910156 C 927.40625 920.40625 907.738281 926.648438 887.128906 930.082031 C 842.171875 938.199219 799.085938 931.957031 758.1875 911.664062 C 739.453125 902.609375 722.28125 891.054688 705.734375 878.257812 C 689.8125 866.078125 673.886719 853.277344 657.964844 840.789062 C 638.921875 826.117188 619.875 811.441406 599.269531 798.953125 C 578.976562 786.464844 557.746094 776.164062 534.328125 770.230469 C 519.96875 766.484375 505.292969 764.296875 490.308594 763.671875 C 465.019531 762.738281 440.039062 764.296875 414.75 766.484375 C 391.023438 768.355469 367.296875 769.917969 343.566406 769.292969 C 315.15625 768.667969 287.367188 763.984375 261.144531 753.058594 C 201.511719 728.082031 166.230469 683.121094 154.054688 619.742188 C 149.683594 595.703125 149.683594 571.351562 151.867188 546.683594 Z M 387.277344 322.515625 C 371.667969 329.695312 356.054688 336.878906 341.382812 345.933594 C 332.015625 351.550781 322.960938 358.109375 315.46875 365.914062 C 303.914062 378.089844 297.046875 392.765625 296.109375 409.625 C 295.484375 418.679688 296.109375 427.417969 297.359375 436.160156 C 298.296875 443.65625 299.546875 451.460938 300.792969 458.953125 C 303.292969 472.378906 300.167969 484.242188 292.050781 495.171875 C 287.367188 501.726562 282.683594 508.28125 278.003906 514.527344 C 272.070312 522.644531 266.761719 531.074219 262.078125 540.128906 C 255.523438 552.929688 250.839844 566.355469 250.214844 580.714844 C 248.964844 602.570312 254.585938 622.554688 265.515625 640.972656 C 274.566406 655.960938 287.054688 666.574219 303.605469 673.132812 C 314.84375 677.503906 326.082031 680.3125 337.949219 681.5625 C 353.246094 683.433594 368.542969 684.371094 384.15625 684.996094 C 401.640625 685.933594 419.121094 686.871094 436.605469 687.804688 C 479.691406 690.304688 522.464844 689.367188 565.238281 682.1875 C 582.722656 679.375 600.519531 677.503906 618.316406 677.816406 C 649.847656 678.4375 679.195312 686.867188 705.734375 704.351562 C 715.101562 710.597656 724.15625 717.464844 732.585938 724.960938 C 745.074219 735.886719 757.5625 746.8125 770.363281 757.742188 C 785.035156 769.917969 800.335938 781.15625 817.195312 789.898438 C 849.664062 807.070312 884.632812 814.253906 920.847656 814.875 C 946.449219 815.5 971.742188 811.753906 996.40625 805.511719 C 1019.195312 799.890625 1041.050781 791.148438 1062.59375 782.40625 C 1076.957031 776.472656 1091.316406 770.855469 1105.992188 766.171875 C 1145.019531 753.683594 1183.109375 755.867188 1220.574219 772.101562 C 1233.0625 777.722656 1244.925781 783.96875 1256.480469 791.460938 C 1287.074219 811.441406 1315.800781 833.921875 1342.960938 858.273438 C 1359.507812 873.261719 1373.871094 890.433594 1386.046875 908.851562 C 1393.851562 920.40625 1400.722656 932.582031 1406.964844 945.070312 C 1413.210938 956.933594 1419.140625 968.796875 1425.386719 980.660156 C 1440.996094 1010.632812 1460.042969 1038.109375 1482.210938 1063.398438 C 1487.828125 1069.953125 1493.761719 1076.199219 1499.378906 1082.753906 L 1499.378906 1066.207031 C 1485.019531 1050.285156 1471.28125 1034.050781 1459.417969 1016.253906 C 1447.867188 999.394531 1437.875 981.285156 1428.507812 963.179688 C 1420.390625 947.566406 1412.585938 931.957031 1403.53125 916.96875 C 1387.609375 889.496094 1367.625 865.457031 1343.585938 844.535156 C 1322.355469 826.117188 1300.1875 808.632812 1277.085938 792.398438 C 1262.097656 782.09375 1246.800781 772.414062 1230.566406 764.609375 C 1203.089844 751.496094 1174.054688 745.253906 1143.457031 747.125 C 1127.222656 748.375 1111.925781 752.121094 1096.625 757.117188 C 1081.015625 762.425781 1065.402344 768.667969 1050.105469 774.914062 C 1019.195312 787.714844 987.664062 797.703125 954.570312 801.453125 C 930.214844 804.261719 906.175781 803.949219 881.824219 799.890625 C 846.855469 793.957031 815.632812 779.597656 787.847656 757.742188 C 776.605469 749 765.992188 739.632812 755.0625 730.265625 C 744.449219 720.902344 733.832031 711.222656 722.28125 702.792969 C 704.484375 689.679688 685.128906 679.375 663.898438 673.132812 C 645.789062 668.136719 627.367188 666.261719 608.324219 666.574219 C 587.40625 666.886719 567.113281 670.320312 546.503906 673.132812 C 527.773438 675.628906 508.726562 677.503906 489.683594 677.503906 C 469.078125 677.816406 448.78125 676.566406 428.175781 675.628906 C 412.253906 675.003906 396.332031 674.066406 380.097656 673.132812 C 366.984375 672.195312 354.183594 671.257812 341.070312 670.007812 C 328.582031 668.761719 316.40625 665.949219 304.851562 661.269531 C 292.363281 655.960938 282.683594 647.84375 275.503906 636.601562 C 268.324219 625.363281 263.640625 613.5 261.453125 600.386719 C 260.207031 592.582031 259.582031 585.085938 260.519531 577.28125 C 261.765625 566.667969 264.890625 556.363281 269.886719 546.683594 C 274.253906 537.945312 279.25 529.511719 284.871094 521.394531 C 290.179688 513.902344 295.484375 506.410156 300.792969 498.917969 C 310.160156 486.117188 312.96875 471.441406 310.785156 455.832031 C 310.160156 450.835938 309.222656 445.839844 308.289062 440.84375 C 306.726562 431.167969 305.476562 421.488281 305.789062 411.496094 C 306.101562 395.574219 312.035156 382.148438 323.273438 370.910156 C 327.957031 366.226562 332.953125 362.167969 338.257812 358.421875 C 348.25 351.550781 358.867188 345.621094 370.105469 340.625 C 386.964844 332.820312 404.136719 325.015625 420.996094 317.207031 C 441.601562 307.53125 462.207031 297.226562 481.253906 284.738281 C 496.238281 274.746094 509.976562 263.820312 521.839844 250.394531 C 533.394531 237.28125 542.136719 222.609375 545.882812 205.4375 C 549.003906 190.761719 548.378906 175.777344 545.570312 161.101562 C 542.757812 146.738281 539.636719 132.691406 536.828125 118.328125 C 531.519531 93.351562 534.328125 69.3125 545.882812 46.519531 C 551.1875 35.90625 557.121094 25.601562 563.367188 15.609375 C 566.800781 10.304688 569.921875 5.308594 573.355469 0 L 560.242188 0 C 555.871094 6.867188 551.5 13.738281 547.128906 20.917969 C 541.199219 30.910156 535.890625 41.210938 531.519531 51.828125 C 525.585938 66.5 522.464844 81.800781 523.089844 97.722656 C 523.402344 105.839844 524.339844 113.644531 525.898438 121.449219 C 528.710938 135.8125 531.832031 149.863281 534.640625 164.222656 C 536.203125 172.652344 536.515625 181.394531 536.203125 189.824219 C 535.578125 205.4375 530.582031 219.484375 521.527344 231.972656 C 514.035156 242.902344 504.667969 251.957031 494.679688 260.074219 C 480.003906 272.25 463.769531 282.242188 447.222656 291.292969 C 428.488281 304.09375 407.882812 313.460938 387.277344 322.515625 Z M 532.457031 349.367188 C 529.023438 355.921875 525.585938 362.480469 522.152344 369.035156 C 509.664062 393.699219 493.429688 415.242188 473.761719 434.601562 C 460.335938 447.714844 445.972656 459.578125 431.921875 471.753906 C 420.058594 481.746094 408.195312 491.734375 397.578125 502.664062 C 391.648438 508.90625 385.714844 515.152344 381.03125 522.644531 C 375.726562 531.074219 371.667969 539.816406 370.730469 549.808594 C 368.230469 569.164062 374.789062 584.773438 391.335938 595.703125 C 396.957031 599.449219 403.199219 602.257812 409.757812 604.132812 C 430.363281 610.6875 451.59375 612.5625 473.136719 611.9375 C 494.992188 611.3125 516.222656 607.566406 537.453125 603.195312 C 565.550781 597.574219 593.648438 591.332031 622.375 589.144531 C 657.964844 586.023438 692.933594 589.457031 726.339844 602.570312 C 747.257812 610.6875 767.554688 620.992188 787.222656 631.605469 C 799.710938 638.476562 812.199219 645.34375 824.6875 651.902344 C 844.355469 662.203125 864.652344 670.007812 886.195312 674.378906 C 898.371094 676.878906 910.546875 679.375 922.722656 681.875 C 956.441406 688.742188 990.785156 692.175781 1025.128906 691.550781 C 1044.796875 691.238281 1064.15625 688.429688 1082.886719 682.5 C 1101.621094 676.566406 1119.417969 668.449219 1134.714844 655.648438 C 1152.824219 640.972656 1161.878906 621.617188 1163.128906 598.511719 C 1164.0625 581.964844 1161.253906 566.042969 1156.882812 550.121094 C 1153.449219 537.632812 1149.703125 525.140625 1145.957031 512.652344 C 1138.773438 487.363281 1134.402344 461.761719 1135.964844 435.226562 C 1136.902344 419.300781 1140.335938 404.003906 1146.269531 389.328125 C 1150.328125 379.652344 1155.007812 370.597656 1160.003906 361.542969 C 1165.9375 350.925781 1171.867188 340.3125 1177.488281 329.386719 C 1182.796875 319.707031 1187.480469 309.714844 1190.601562 299.101562 C 1194.035156 287.859375 1195.285156 276.621094 1193.722656 264.757812 C 1192.164062 252.894531 1188.417969 241.652344 1183.421875 230.726562 C 1174.054688 210.121094 1160.941406 191.699219 1146.269531 174.527344 C 1131.59375 157.667969 1116.605469 141.121094 1101.933594 124.574219 C 1068.214844 86.484375 1038.554688 45.894531 1013.265625 1.875 L 1000.464844 1.875 C 1012.640625 23.726562 1026.378906 44.957031 1040.738281 65.253906 C 1063.53125 97.722656 1089.132812 127.382812 1115.671875 156.730469 C 1126.597656 168.90625 1137.527344 180.769531 1147.515625 193.882812 C 1159.066406 208.871094 1169.058594 224.480469 1175.929688 241.964844 C 1181.234375 254.765625 1183.734375 267.878906 1182.484375 281.929688 C 1181.546875 291.917969 1178.113281 300.972656 1174.054688 310.027344 C 1168.746094 322.203125 1162.191406 333.753906 1155.632812 345.621094 C 1149.078125 357.484375 1142.519531 369.347656 1136.902344 381.835938 C 1126.910156 404.316406 1123.164062 427.730469 1124.101562 452.085938 C 1125.035156 471.441406 1128.160156 490.488281 1133.15625 508.90625 C 1137.835938 525.453125 1142.519531 542.003906 1147.203125 558.550781 C 1150.328125 570.101562 1151.886719 581.652344 1151.886719 593.828125 C 1151.261719 617.246094 1142.207031 636.289062 1122.851562 650.027344 C 1118.167969 653.148438 1113.484375 656.273438 1108.488281 659.082031 C 1083.824219 672.507812 1056.972656 678.75 1029.1875 680 C 1004.523438 681.25 979.859375 679.0625 955.503906 675.941406 C 935.835938 673.445312 916.480469 668.761719 896.808594 665.015625 C 869.648438 660.019531 844.355469 650.339844 820.316406 637.226562 C 809.390625 631.296875 798.460938 625.363281 787.535156 619.429688 C 770.050781 610.0625 752.253906 601.324219 733.832031 593.828125 C 705.734375 582.589844 676.699219 576.65625 646.101562 576.96875 C 619.5625 577.28125 593.335938 580.402344 567.425781 585.398438 C 545.882812 589.457031 524.652344 594.453125 502.796875 597.886719 C 483.75 600.699219 464.394531 601.632812 445.035156 600.074219 C 433.484375 599.136719 422.246094 596.953125 411.003906 593.203125 C 404.449219 591.019531 398.203125 588.210938 392.898438 584.152344 C 385.402344 578.21875 381.34375 570.726562 380.410156 561.359375 C 379.472656 551.992188 381.34375 542.9375 385.714844 534.820312 C 390.085938 526.078125 396.644531 518.585938 403.511719 511.40625 C 413.191406 501.726562 423.492188 492.671875 433.796875 483.929688 C 448.160156 471.753906 462.207031 459.890625 475.945312 447.089844 C 499.050781 425.546875 517.78125 400.882812 531.832031 372.78125 C 534.640625 367.164062 537.453125 361.855469 540.261719 356.234375 C 550.566406 335.628906 563.988281 317.207031 580.539062 301.285156 C 591.464844 290.671875 602.390625 280.367188 613.632812 270.375 C 626.433594 258.511719 639.234375 246.648438 650.785156 233.222656 C 671.078125 210.121094 683.878906 183.582031 689.1875 153.296875 C 692.933594 132.066406 692.933594 110.835938 691.683594 89.292969 C 690.75 72.746094 689.1875 56.199219 688.5625 39.652344 C 687.9375 27.164062 688.5625 14.671875 689.8125 2.183594 L 678.570312 2.183594 C 677.324219 15.296875 676.699219 28.722656 677.324219 42.148438 C 678.261719 60.882812 679.820312 79.300781 681.070312 98.035156 C 682.320312 117.390625 681.382812 136.75 677.636719 155.480469 C 672.328125 182.644531 660.152344 206.371094 641.730469 226.980469 C 629.554688 240.714844 615.816406 253.203125 602.390625 265.691406 C 592.089844 275.058594 581.785156 284.738281 571.796875 294.417969 C 556.496094 310.339844 543.070312 328.761719 532.457031 349.367188 Z M 1205.898438 130.503906 C 1231.1875 153.296875 1259.601562 171.40625 1291.445312 183.894531 C 1304.558594 189.203125 1317.984375 194.507812 1331.097656 199.816406 C 1341.089844 203.875 1350.453125 208.558594 1359.507812 214.492188 C 1365.441406 218.550781 1371.0625 222.921875 1375.433594 228.539062 C 1382.613281 237.28125 1385.109375 247.273438 1382.300781 258.511719 C 1380.425781 266.316406 1376.679688 273.5 1372.308594 280.367188 C 1365.753906 290.046875 1357.949219 298.476562 1349.519531 306.28125 C 1341.714844 313.148438 1333.90625 320.019531 1326.101562 326.886719 C 1309.867188 340.9375 1293.945312 354.988281 1279.269531 370.597656 C 1268.65625 382.148438 1259.289062 394.636719 1251.484375 408.6875 C 1239.308594 431.167969 1233.0625 454.894531 1233.375 480.183594 C 1233.6875 507.972656 1240.554688 534.195312 1252.421875 559.175781 C 1263.660156 582.277344 1279.582031 602.257812 1297.378906 620.679688 C 1312.050781 635.667969 1327.664062 649.089844 1343.898438 662.203125 C 1390.730469 700.292969 1437.875 738.695312 1484.707031 776.785156 C 1489.390625 780.535156 1494.074219 784.59375 1498.757812 788.339844 L 1498.757812 774.289062 C 1466.597656 747.75 1434.753906 721.523438 1402.59375 695.300781 C 1381.050781 677.503906 1359.195312 660.332031 1337.652344 642.535156 C 1319.859375 627.859375 1303 611.9375 1288.324219 594.140625 C 1267.40625 568.851562 1253.355469 540.753906 1247.425781 508.59375 C 1241.804688 478.621094 1244.300781 449.585938 1257.726562 421.800781 C 1263.972656 408.6875 1272.089844 396.511719 1281.769531 385.582031 C 1294.257812 370.910156 1308.304688 357.796875 1322.980469 344.996094 C 1333.90625 335.316406 1345.148438 325.949219 1355.761719 316.273438 C 1364.503906 308.464844 1372.621094 299.726562 1379.492188 290.046875 C 1384.796875 282.867188 1388.855469 275.058594 1391.667969 266.316406 C 1397.285156 249.144531 1393.851562 233.535156 1381.988281 219.796875 C 1377.304688 214.492188 1371.683594 209.808594 1365.753906 206.0625 C 1358.261719 201.066406 1350.453125 197.007812 1342.335938 193.574219 C 1327.976562 187.328125 1313.300781 181.394531 1298.628906 175.777344 C 1274.898438 166.097656 1252.109375 154.859375 1232.125 138.933594 C 1205.277344 117.703125 1180.921875 93.976562 1159.378906 67.125 C 1143.457031 47.144531 1130.03125 25.601562 1118.167969 3.121094 L 1105.367188 3.121094 C 1113.484375 18.734375 1122.539062 33.71875 1131.90625 48.394531 C 1152.824219 78.675781 1178.425781 105.527344 1205.898438 130.503906 Z M 691.058594 378.089844 C 694.808594 367.164062 700.425781 356.859375 707.296875 347.492188 C 713.539062 338.75 721.34375 331.257812 730.398438 325.636719 C 735.082031 322.515625 740.078125 320.019531 744.761719 316.898438 C 750.691406 313.148438 756.9375 309.402344 762.871094 305.34375 C 776.605469 295.664062 784.414062 281.929688 787.222656 265.382812 C 789.40625 252.894531 789.09375 240.402344 788.160156 228.226562 C 786.597656 210.742188 784.414062 193.574219 782.851562 176.089844 C 780.664062 155.480469 780.664062 134.5625 785.347656 114.269531 C 788.160156 101.78125 793.152344 89.917969 800.335938 79.300781 C 803.144531 74.929688 806.265625 71.183594 810.015625 67.75 C 812.511719 65.253906 815.320312 63.066406 818.445312 61.195312 C 835.617188 50.578125 853.097656 54.949219 863.402344 72.433594 C 866.210938 77.429688 868.398438 82.738281 869.644531 88.042969 C 871.519531 95.226562 873.394531 102.40625 874.640625 109.585938 C 878.386719 129.570312 888.066406 146.117188 903.988281 158.917969 C 912.417969 165.472656 920.539062 172.339844 928.65625 179.210938 C 934.898438 184.519531 941.457031 189.824219 947.386719 195.445312 C 963 209.808594 972.675781 227.292969 976.734375 248.210938 C 980.171875 265.695312 982.042969 283.488281 983.605469 300.972656 C 984.539062 310.027344 985.476562 319.394531 986.726562 328.449219 C 989.535156 350.617188 997.339844 370.910156 1009.207031 389.640625 C 1015.449219 399.320312 1022.007812 408.6875 1028.5625 418.367188 C 1033.871094 426.171875 1039.492188 433.976562 1044.171875 442.09375 C 1056.972656 464.886719 1061.34375 489.238281 1057.910156 515.777344 C 1055.726562 530.761719 1051.042969 545.75 1042.300781 559.175781 C 1032.308594 574.472656 1018.570312 584.464844 1000.464844 588.835938 C 987.351562 591.957031 974.550781 590.707031 962.0625 585.398438 C 954.257812 581.964844 947.386719 577.59375 940.832031 572.597656 C 934.898438 567.914062 929.277344 563.234375 923.660156 558.550781 C 916.167969 552.304688 908.671875 545.75 901.179688 539.503906 C 882.445312 523.894531 860.90625 513.277344 837.800781 506.410156 C 815.945312 500.164062 793.777344 494.234375 771.921875 487.988281 C 757.5625 483.929688 743.511719 479.871094 730.085938 473.316406 C 723.53125 470.191406 717.597656 466.445312 711.980469 462.074219 C 702.300781 454.582031 695.429688 445.214844 691.371094 433.664062 C 687.9375 423.984375 686.066406 414.308594 685.753906 404.003906 C 685.441406 394.949219 687.9375 386.519531 691.058594 378.089844 Z M 699.492188 423.359375 C 702.613281 435.851562 708.855469 445.527344 718.847656 453.332031 C 725.402344 458.640625 732.585938 462.386719 740.390625 465.820312 C 752.566406 471.128906 765.054688 474.5625 777.542969 478 C 799.085938 484.242188 820.941406 489.863281 842.484375 496.417969 C 865.898438 503.289062 887.128906 513.902344 906.175781 529.203125 C 912.730469 534.507812 918.976562 539.816406 925.21875 545.125 C 931.777344 550.746094 938.332031 556.363281 944.890625 561.671875 C 950.507812 566.355469 956.128906 570.414062 962.6875 573.535156 C 979.234375 581.652344 995.78125 581.652344 1012.015625 572.597656 C 1022.320312 566.980469 1029.8125 558.863281 1035.433594 548.871094 C 1041.675781 537.945312 1044.796875 525.765625 1046.671875 514.839844 C 1049.792969 490.800781 1046.359375 469.257812 1035.121094 448.960938 C 1030.4375 440.53125 1024.816406 432.414062 1019.195312 424.296875 C 1012.640625 414.929688 1005.769531 405.253906 999.839844 395.574219 C 987.039062 375.59375 978.609375 353.738281 975.800781 330.320312 C 973.925781 316.273438 972.675781 301.910156 971.117188 287.859375 C 969.554688 273.8125 967.992188 259.449219 964.558594 245.710938 C 960.8125 230.414062 953.320312 217.300781 942.078125 206.0625 C 936.148438 200.128906 929.902344 194.820312 923.347656 189.511719 C 915.230469 182.957031 907.113281 176.710938 899.308594 169.84375 C 894 165.160156 888.691406 160.164062 883.695312 155.167969 C 875.890625 147.050781 870.269531 137.6875 867.460938 127.070312 C 865.277344 119.890625 863.714844 112.707031 861.839844 105.527344 C 860.28125 99.285156 858.71875 92.726562 856.847656 86.484375 C 855.597656 82.113281 853.722656 78.054688 850.914062 74.617188 C 844.980469 66.5 836.550781 64.316406 827.183594 68.375 C 823.125 70.246094 819.378906 72.746094 816.257812 75.867188 C 812.199219 79.925781 808.765625 84.296875 805.953125 89.292969 C 800.335938 98.972656 796.589844 109.273438 794.402344 119.890625 C 791.28125 135.1875 790.96875 150.488281 792.53125 165.785156 C 794.089844 183.269531 795.964844 200.441406 797.835938 217.925781 C 799.398438 234.785156 800.335938 251.644531 797.214844 268.503906 C 794.089844 285.363281 786.285156 299.726562 772.859375 310.652344 C 768.175781 314.710938 762.871094 318.144531 757.5625 321.265625 C 752.878906 324.078125 747.882812 327.199219 742.886719 329.695312 C 723.53125 340.3125 711.042969 356.546875 702.613281 376.527344 C 696.679688 392.140625 695.742188 407.4375 699.492188 423.359375 Z M 699.492188 423.359375 " fill-opacity="1" fill-rule="nonzero"/></g><g transform="matrix(1, 0, 0, 1, 150, 1111)"><g clip-path="url(#b7bdc32faf)"><g fill="#ffffff" fill-opacity="1"><g transform="translate(0.00002043, 286.028512)"><g><path d="M 68.453125 0.921875 C 63.492188 0.304688 53.941406 0 39.796875 0 L 27.40625 0 L 27.40625 -206.578125 C 34.007812 -206.160156 41.285156 -205.953125 49.234375 -205.953125 C 57.191406 -205.953125 62.820312 -206.363281 66.125 -207.1875 L 118.15625 -118.765625 L 168.171875 -207.1875 C 171.472656 -206.363281 177.769531 -205.953125 187.0625 -205.953125 C 196.351562 -205.953125 204.300781 -206.160156 210.90625 -206.578125 L 210.90625 0 L 198.515625 0 C 184.378906 0 174.832031 0.304688 169.875 0.921875 L 169.875 -137.8125 L 119.234375 -47.234375 L 68.453125 -130.546875 Z M 68.453125 0.921875 "/></g></g><g transform="translate(238.319062, 286.028512)"><g><path d="M 17.8125 -207.96875 C 26.070312 -220.875 34.691406 -232.226562 43.671875 -242.03125 L 76.96875 -215.859375 C 72.519531 -210.390625 68.390625 -205.023438 64.578125 -199.765625 C 64.578125 -199.765625 60.601562 -194.132812 52.65625 -182.875 Z M 58.53125 -17.34375 C 58.53125 -8.46875 58.738281 -2.6875 59.15625 0 L 19.828125 0 L 19.828125 -161.828125 L 58.53125 -161.828125 Z M 58.53125 -17.34375 "/></g></g><g transform="translate(317.758742, 286.028512)"><g><path d="M 57.921875 -82.53125 L 3.09375 -161.828125 L 51.5625 -161.828125 L 80.21875 -112.421875 L 111.1875 -161.828125 L 156.25 -161.828125 C 156.144531 -161.828125 155.007812 -160.328125 152.84375 -157.328125 L 102.359375 -85.328125 L 159.65625 0 L 111.65625 0 L 80.671875 -52.5 L 50.015625 0 L 1.546875 0 Z M 57.921875 -82.53125 "/></g></g><g transform="translate(477.412371, 286.028512)"><g><path d="M 15.015625 -79.59375 C 15.015625 -91.675781 17.078125 -102.878906 21.203125 -113.203125 C 25.335938 -123.523438 31.175781 -132.554688 38.71875 -140.296875 C 54.820312 -156.710938 75.878906 -164.921875 101.890625 -164.921875 C 123.878906 -164.921875 141.535156 -157.640625 154.859375 -143.078125 C 167.960938 -129.046875 174.515625 -111.394531 174.515625 -90.125 C 174.515625 -81.96875 173.894531 -76.394531 172.65625 -73.40625 C 162.332031 -70.507812 141.328125 -69.0625 109.640625 -69.0625 L 55.125 -69.0625 C 57.8125 -58.019531 64.054688 -49.425781 73.859375 -43.28125 C 83.671875 -37.132812 96.421875 -34.0625 112.109375 -34.0625 C 128.523438 -34.0625 142.617188 -37.003906 154.390625 -42.890625 C 157.484375 -44.441406 159.804688 -45.890625 161.359375 -47.234375 C 161.148438 -42.890625 160.890625 -38.445312 160.578125 -33.90625 L 158.875 -9.75 C 151.03125 -4.382812 138.332031 -0.671875 120.78125 1.390625 C 115.625 2.015625 110.671875 2.328125 105.921875 2.328125 C 79.703125 2.328125 58.019531 -5.3125 40.875 -20.59375 C 23.632812 -35.976562 15.015625 -55.644531 15.015625 -79.59375 Z M 133.328125 -99.109375 C 129.097656 -121.304688 117.019531 -132.40625 97.09375 -132.40625 C 81.40625 -132.40625 69.484375 -125.640625 61.328125 -112.109375 C 58.847656 -107.984375 56.9375 -103.441406 55.59375 -98.484375 C 58.070312 -98.378906 61.117188 -98.273438 64.734375 -98.171875 L 76.1875 -98.171875 C 80.007812 -98.066406 83.675781 -98.015625 87.1875 -98.015625 L 96.015625 -98.015625 C 101.273438 -98.015625 106.4375 -98.066406 111.5 -98.171875 L 124.1875 -98.640625 C 127.59375 -98.742188 130.640625 -98.898438 133.328125 -99.109375 Z M 133.328125 -99.109375 "/></g></g><g transform="translate(662.771627, 286.028512)"><g><path d="M 59.3125 -17.34375 C 59.3125 -8.46875 59.515625 -2.6875 59.921875 0 L 21.375 0 L 21.375 -161.828125 L 59.3125 -161.828125 L 59.3125 -149.90625 C 68.082031 -159.914062 77.289062 -164.921875 86.9375 -164.921875 C 96.59375 -164.921875 104.210938 -163.734375 109.796875 -161.359375 L 107 -119.703125 L 106.390625 -119.234375 C 102.773438 -125.640625 95.289062 -128.84375 83.9375 -128.84375 C 79.59375 -128.84375 75.175781 -127.367188 70.6875 -124.421875 C 66.195312 -121.484375 62.40625 -117.585938 59.3125 -112.734375 Z M 59.3125 -17.34375 "/></g></g><g transform="translate(768.691203, 286.028512)"><g><path d="M 43.515625 -24.46875 C 34.117188 -33.445312 26.707031 -44.234375 21.28125 -56.828125 C 15.863281 -69.421875 13.15625 -83.226562 13.15625 -98.25 C 13.15625 -113.269531 15.6875 -127.488281 20.75 -140.90625 C 25.8125 -154.332031 33.035156 -166.15625 42.421875 -176.375 C 51.816406 -186.59375 63.171875 -194.722656 76.484375 -200.765625 C 89.804688 -206.804688 104.726562 -209.828125 121.25 -209.828125 C 149.738281 -209.828125 173.738281 -200.84375 193.25 -182.875 C 214.101562 -163.675781 224.53125 -137.765625 224.53125 -105.140625 C 224.53125 -73.554688 213.796875 -47.285156 192.328125 -26.328125 C 179.109375 -13.421875 163.363281 -4.539062 145.09375 0.3125 C 136.113281 2.6875 125.609375 3.875 113.578125 3.875 C 101.554688 3.875 89.222656 1.394531 76.578125 -3.5625 C 63.929688 -8.519531 52.910156 -15.488281 43.515625 -24.46875 Z M 56.21875 -100.34375 C 56.21875 -90.738281 57.816406 -81.910156 61.015625 -73.859375 C 64.210938 -65.804688 68.648438 -58.890625 74.328125 -53.109375 C 86.410156 -40.929688 101.945312 -34.84375 120.9375 -34.84375 C 139.007812 -34.84375 153.515625 -40.675781 164.453125 -52.34375 C 175.597656 -64.414062 181.171875 -80.878906 181.171875 -101.734375 C 181.171875 -121.347656 175.859375 -137.710938 165.234375 -150.828125 C 153.773438 -164.867188 138.082031 -171.890625 118.15625 -171.890625 C 98.851562 -171.890625 83.519531 -164.765625 72.15625 -150.515625 C 61.53125 -137.203125 56.21875 -120.476562 56.21875 -100.34375 Z M 56.21875 -100.34375 "/></g></g><g transform="translate(1006.390834, 286.028512)"><g><path d="M 150.984375 -194.5 L 148.046875 -148.96875 L 146.953125 -148.65625 C 139.316406 -160.113281 126.3125 -167.546875 107.9375 -170.953125 C 102.15625 -172.085938 96.601562 -172.65625 91.28125 -172.65625 C 85.96875 -172.65625 81.425781 -172.191406 77.65625 -171.265625 C 73.882812 -170.335938 70.660156 -168.992188 67.984375 -167.234375 C 62.304688 -163.523438 59.46875 -158.675781 59.46875 -152.6875 C 59.46875 -144.84375 61.941406 -138.957031 66.890625 -135.03125 C 73.085938 -130.28125 83.359375 -126.945312 97.703125 -125.03125 C 112.054688 -123.125 123.566406 -120.519531 132.234375 -117.21875 C 140.910156 -113.914062 148.035156 -109.738281 153.609375 -104.6875 C 164.140625 -95.1875 169.40625 -81.765625 169.40625 -64.421875 C 169.40625 -41.703125 160.835938 -24.203125 143.703125 -11.921875 C 129.046875 -1.390625 110.566406 3.875 88.265625 3.875 C 70.304688 3.875 52.550781 0.46875 35 -6.34375 C 29.21875 -8.613281 24.160156 -11.25 19.828125 -14.25 L 21.53125 -65.96875 L 22.140625 -66.4375 C 34.941406 -44.34375 55.953125 -33.296875 85.171875 -33.296875 C 105.921875 -33.296875 119.648438 -38.300781 126.359375 -48.3125 C 128.628906 -51.71875 129.765625 -55.507812 129.765625 -59.6875 C 129.765625 -63.875 129.09375 -67.332031 127.75 -70.0625 C 126.40625 -72.800781 124.1875 -75.15625 121.09375 -77.125 C 115.101562 -81.039062 105.035156 -83.671875 90.890625 -85.015625 C 76.753906 -86.359375 65.191406 -88.882812 56.203125 -92.59375 C 47.222656 -96.3125 40.050781 -100.910156 34.6875 -106.390625 C 24.976562 -116.296875 20.125 -130.128906 20.125 -147.890625 C 20.125 -166.265625 26.578125 -181.128906 39.484375 -192.484375 C 52.597656 -204.046875 70.273438 -209.828125 92.515625 -209.828125 C 114.765625 -209.828125 134.253906 -204.71875 150.984375 -194.5 Z M 150.984375 -194.5 "/></g></g></g></g></g></svg>